<svg xmlns="http://www.w3.org/2000/svg" width="220.009" height="39.958" viewBox="0 0 220.009 39.958">
    <defs>
        <style>
            .cls-1{fill:#fff}.cls-2{fill:#e82721}.cls-3{fill:#7a7c80}
        </style>
    </defs>
    <g id="Group_179" data-name="Group 179" transform="translate(-141.732 -120.832)">
        <g id="Group_87" data-name="Group 87" transform="translate(141.732 120.832)">
            <path id="Path_141" d="M161.573 121.916a.529.529 0 0 1 .512.512v20.05a.528.528 0 0 1-.512.513h-2.71a.528.528 0 0 1-.512-.513v-14.27l-6.081 8.31a.485.485 0 0 1-.392.18.445.445 0 0 1-.391-.18l-6.022-8.31v14.27a.527.527 0 0 1-.512.513h-2.709a.528.528 0 0 1-.513-.513v-20.05a.529.529 0 0 1 .513-.512h2.709a.925.925 0 0 1 .813.422l6.141 8.37 6.142-8.37a.924.924 0 0 1 .813-.422z" class="cls-1" data-name="Path 141" transform="translate(-141.732 -121.495)"/>
            <path id="Path_142" d="M213.856 134.5v7.977a.528.528 0 0 1-.512.513h-2.71a.528.528 0 0 1-.511-.513V134.5l-7.948-12.163a.274.274 0 0 1 .241-.422h3.432a.908.908 0 0 1 .782.422l5.359 8.279 5.36-8.279a.839.839 0 0 1 .782-.422h3.432a.274.274 0 0 1 .241.422z" class="cls-1" data-name="Path 142" transform="translate(-178.692 -121.495)"/>
            <path id="Path_143" d="M283.59 136.185a.5.5 0 0 1 .6.361c.573 1.807 2.139 2.619 4.547 2.619 2.679 0 3.7-1.624 3.7-2.709.121-4.607-11.32-1.746-11.32-9.453 0-4.306 3.613-6.171 7.527-6.171 3.642 0 6.623 1.565 7.5 5.027a.52.52 0 0 1-.36.663l-2.318.662a.494.494 0 0 1-.663-.331c-.692-1.6-1.867-2.439-4.154-2.439-1.988 0-3.884.753-3.884 2.559 0 4.306 11.41 1.505 11.41 9.484 0 3.913-3.343 6.293-7.436 6.293-3.674 0-7.136-1.716-7.859-5.269a.517.517 0 0 1 .391-.662z" class="cls-1" data-name="Path 143" transform="translate(-226.871 -120.832)"/>
            <path id="Path_144" d="M336.967 121.916c4.035 0 7.226 2.469 7.226 7.376s-3.191 7.376-7.226 7.376h-4.545v5.809a.529.529 0 0 1-.512.513h-2.71a.528.528 0 0 1-.513-.513v-20.05a.529.529 0 0 1 .513-.512zm-4.545 11.14h4.124c2.8 0 3.975-1.6 3.975-3.764s-1.175-3.763-3.975-3.763h-4.124z" class="cls-1" data-name="Path 144" transform="translate(-256.136 -121.495)"/>
            <path id="Path_145" d="M389.182 130.648a.528.528 0 0 1 .513.511v2.589a.528.528 0 0 1-.513.513h-7.888v5.118h9.906a.528.528 0 0 1 .511.513v2.588a.528.528 0 0 1-.511.513h-13.127a.528.528 0 0 1-.512-.513v-20.05a.529.529 0 0 1 .512-.512H391.2a.528.528 0 0 1 .511.512v2.59a.528.528 0 0 1-.511.512h-9.906v5.118z" class="cls-1" data-name="Path 145" transform="translate(-286.042 -121.495)"/>
            <path id="Path_146" d="M440.129 136.667a.506.506 0 0 1 .239.663c-1.836 3.612-5.237 5.419-9.483 5.419-6.051 0-10.658-3.734-10.658-10.959s4.607-10.958 10.658-10.958c4.246 0 7.617 1.776 9.454 5.389a.511.511 0 0 1-.211.692l-2.408 1.174a.469.469 0 0 1-.663-.21 6.678 6.678 0 0 0-6.172-3.432c-3.01 0-6.924 1.6-6.924 7.345s3.914 7.347 6.924 7.347a6.708 6.708 0 0 0 6.172-3.4.461.461 0 0 1 .663-.241z" class="cls-1" data-name="Path 146" transform="translate(-312.151 -120.832)"/>
            <path id="Path_147" d="M492.436 121.916a.529.529 0 0 1 .513.512v2.62a.528.528 0 0 1-.513.511H487.2v16.92a.529.529 0 0 1-.511.513h-2.712a.529.529 0 0 1-.511-.513v-16.92h-5.238a.526.526 0 0 1-.511-.511v-2.62a.527.527 0 0 1 .511-.512z" class="cls-1" data-name="Path 147" transform="translate(-347.33 -121.495)"/>
            <path id="Path_148" d="M532.616 121.916c4.034 0 7.226 2.469 7.226 7.376 0 3.824-2.047 6.232-4.847 6.954l4.546 6.322a.263.263 0 0 1-.21.422h-3.343a.925.925 0 0 1-.814-.422l-4.154-5.9h-2.95v5.809a.529.529 0 0 1-.514.513h-2.709a.527.527 0 0 1-.511-.513v-20.05a.527.527 0 0 1 .511-.512zm-4.545 11.14h4.125c2.8 0 3.974-1.6 3.974-3.764s-1.174-3.763-3.974-3.763h-4.126z" class="cls-1" data-name="Path 148" transform="translate(-375.858 -121.495)"/>
            <path id="Path_149" d="M586.634 122.428a.529.529 0 0 1 .513-.512h2.709a.527.527 0 0 1 .511.512v12.255c0 5.75-3.763 8.73-8.58 8.73s-8.58-2.98-8.58-8.73v-12.255a.527.527 0 0 1 .511-.512h2.71a.529.529 0 0 1 .513.512v12.255c0 4.424 2.92 5.117 4.846 5.117 2.169 0 4.847-1.025 4.847-5.117z" class="cls-1" data-name="Path 149" transform="translate(-405.764 -121.495)"/>
            <path id="Path_150" d="M647.738 121.916a.527.527 0 0 1 .511.512v20.05a.526.526 0 0 1-.511.513h-2.709a.527.527 0 0 1-.511-.513v-14.27l-6.083 8.31a.484.484 0 0 1-.392.18.446.446 0 0 1-.391-.18l-6.02-8.31v14.27a.529.529 0 0 1-.513.513h-2.709a.528.528 0 0 1-.511-.513v-20.05a.529.529 0 0 1 .511-.512h2.709a.928.928 0 0 1 .815.422l6.142 8.37 6.139-8.37a.927.927 0 0 1 .815-.422z" class="cls-1" data-name="Path 150" transform="translate(-439.231 -121.495)"/>
        </g>
        <path id="Rectangle_2" d="M1.006 0h4.913a1.009 1.009 0 0 1 1.008 1.009v4.953a1.01 1.01 0 0 1-1.01 1.01H1.009A1.009 1.009 0 0 1 0 5.963V1.006A1.006 1.006 0 0 1 1.006 0z" class="cls-2" data-name="Rectangle 2" transform="translate(354.814 135.356)"/>
        <g id="Group_88" data-name="Group 88" transform="translate(141.732 150.056)">
            <path id="Path_151" d="M154.334 206.755a.3.3 0 0 1-.324.236h-1.43a.332.332 0 0 1-.339-.236l-2.492-7.343-2.521 7.343a.305.305 0 0 1-.324.236h-1.43a.332.332 0 0 1-.339-.236l-3.391-9.85a.182.182 0 0 1 .177-.236h1.43a.3.3 0 0 1 .324.236l2.521 7.343 2.492-7.343a.344.344 0 0 1 .339-.236h1.43a.3.3 0 0 1 .324.236l2.521 7.343 2.492-7.343a.344.344 0 0 1 .339-.236h1.43a.174.174 0 0 1 .162.236z" class="cls-3" data-name="Path 151" transform="translate(-141.732 -196.464)"/>
            <path id="Path_152" d="M189.567 206.74a.259.259 0 0 1-.251.251h-1.327a.258.258 0 0 1-.251-.251v-9.819a.259.259 0 0 1 .251-.251h1.327a.259.259 0 0 1 .251.251z" class="cls-3" data-name="Path 152" transform="translate(-169.884 -196.464)"/>
            <path id="Path_153" d="M200.108 196.67a.451.451 0 0 1 .4.206l5.16 7v-6.959a.259.259 0 0 1 .251-.251h1.327a.259.259 0 0 1 .251.251v9.819a.258.258 0 0 1-.251.251h-1.327a.452.452 0 0 1-.4-.206l-5.161-6.989v6.945a.258.258 0 0 1-.251.251h-1.327a.258.258 0 0 1-.251-.251v-9.819a.259.259 0 0 1 .251-.251z" class="cls-3" data-name="Path 153" transform="translate(-176.488 -196.464)"/>
            <path id="Path_154" d="M229.292 196.67a.452.452 0 0 1 .4.206l5.161 7v-6.959a.259.259 0 0 1 .251-.251h1.327a.259.259 0 0 1 .251.251v9.819a.258.258 0 0 1-.251.251H235.1a.452.452 0 0 1-.4-.206l-5.161-6.989v6.945a.258.258 0 0 1-.251.251h-1.327a.258.258 0 0 1-.251-.251v-9.819a.259.259 0 0 1 .251-.251z" class="cls-3" data-name="Path 154" transform="translate(-194.347 -196.464)"/>
            <path id="Path_155" d="M258.726 206.74a.258.258 0 0 1-.251.251h-1.327a.259.259 0 0 1-.251-.251v-9.819a.259.259 0 0 1 .251-.251h1.327a.259.259 0 0 1 .251.251z" class="cls-3" data-name="Path 155" transform="translate(-212.205 -196.464)"/>
            <path id="Path_156" d="M269.267 196.67a.452.452 0 0 1 .4.206l5.161 7v-6.959a.259.259 0 0 1 .251-.251h1.321a.259.259 0 0 1 .251.251v9.819a.258.258 0 0 1-.251.251h-1.327a.452.452 0 0 1-.4-.206l-5.161-6.989v6.945a.258.258 0 0 1-.251.251h-1.321a.259.259 0 0 1-.251-.251v-9.819a.259.259 0 0 1 .251-.251z" class="cls-3" data-name="Path 156" transform="translate(-218.809 -196.464)"/>
            <path id="Path_157" d="M306.3 201.182a.258.258 0 0 1 .251.25v.074c0 3.538-2.256 5.367-5.22 5.367s-5.22-1.828-5.22-5.367 2.256-5.367 5.22-5.367a4.859 4.859 0 0 1 4.63 2.639.25.25 0 0 1-.1.339l-1.18.575a.231.231 0 0 1-.324-.1 3.27 3.27 0 0 0-3.023-1.681 3.6 3.6 0 0 0 0 7.2 3.139 3.139 0 0 0 3.17-2.152h-3.819a.258.258 0 0 1-.251-.251v-1.268a.258.258 0 0 1 .251-.25z" class="cls-3" data-name="Path 157" transform="translate(-236.202 -196.139)"/>
            <path id="Path_158" d="M345.046 196.67a.259.259 0 0 1 .251.251v1.279a.259.259 0 0 1-.251.251h-2.566v8.286a.258.258 0 0 1-.251.251H340.9a.258.258 0 0 1-.251-.251v-8.286h-2.566a.259.259 0 0 1-.251-.251v-1.282a.259.259 0 0 1 .251-.251z" class="cls-3" data-name="Path 158" transform="translate(-261.734 -196.464)"/>
            <path id="Path_159" d="M370.164 201.506c0 3.538-2.256 5.367-5.22 5.367s-5.219-1.828-5.219-5.367 2.256-5.367 5.219-5.367 5.22 1.828 5.22 5.367zm-1.828 0a3.4 3.4 0 1 0-3.391 3.6 3.232 3.232 0 0 0 3.391-3.6z" class="cls-3" data-name="Path 159" transform="translate(-275.128 -196.139)"/>
            <path id="Path_160" d="M401 201.182a.258.258 0 0 1 .251.25v.074c0 3.538-2.256 5.367-5.22 5.367s-5.219-1.828-5.219-5.367 2.256-5.367 5.219-5.367a4.859 4.859 0 0 1 4.63 2.639.25.25 0 0 1-.1.339l-1.18.575a.231.231 0 0 1-.324-.1 3.27 3.27 0 0 0-3.023-1.681 3.6 3.6 0 0 0 0 7.2 3.139 3.139 0 0 0 3.17-2.152h-3.824a.258.258 0 0 1-.251-.251v-1.268a.258.258 0 0 1 .251-.25z" class="cls-3" data-name="Path 160" transform="translate(-294.149 -196.139)"/>
            <path id="Path_161" d="M428.344 200.946a.258.258 0 0 1 .25.25v1.268a.258.258 0 0 1-.25.251h-3.863v2.507h4.851a.259.259 0 0 1 .251.251v1.268a.259.259 0 0 1-.251.251H422.9a.259.259 0 0 1-.251-.251v-9.819a.259.259 0 0 1 .251-.251h6.429a.259.259 0 0 1 .251.251v1.268a.259.259 0 0 1-.251.251h-4.851v2.507z" class="cls-3" data-name="Path 161" transform="translate(-313.635 -196.464)"/>
            <path id="Path_162" d="M451.522 196.67a.259.259 0 0 1 .251.251v1.279a.259.259 0 0 1-.251.251h-2.566v8.286a.258.258 0 0 1-.25.251h-1.327a.259.259 0 0 1-.251-.251v-8.286h-2.566a.259.259 0 0 1-.251-.251v-1.282a.259.259 0 0 1 .251-.251z" class="cls-3" data-name="Path 162" transform="translate(-326.889 -196.464)"/>
            <path id="Path_163" d="M468.1 196.921a.258.258 0 0 1 .251-.251h1.327a.258.258 0 0 1 .25.251v4.025h5.087v-4.025a.259.259 0 0 1 .25-.251h1.327a.259.259 0 0 1 .251.251v9.819a.259.259 0 0 1-.251.251h-1.327a.258.258 0 0 1-.25-.251v-4.025h-5.087v4.025a.258.258 0 0 1-.25.251h-1.327a.258.258 0 0 1-.251-.251z" class="cls-3" data-name="Path 163" transform="translate(-341.447 -196.464)"/>
            <path id="Path_164" d="M502.405 200.946a.258.258 0 0 1 .251.25v1.268a.259.259 0 0 1-.251.251h-3.863v2.507h4.851a.258.258 0 0 1 .25.251v1.268a.258.258 0 0 1-.25.251h-6.429a.259.259 0 0 1-.251-.251v-9.819a.259.259 0 0 1 .251-.251h6.429a.258.258 0 0 1 .25.251v1.268a.258.258 0 0 1-.25.251h-4.851v2.507z" class="cls-3" data-name="Path 164" transform="translate(-358.956 -196.464)"/>
            <path id="Path_165" d="M523.949 196.67a3.331 3.331 0 0 1 3.538 3.613 3.241 3.241 0 0 1-2.373 3.406l2.226 3.1a.129.129 0 0 1-.1.206h-1.64a.452.452 0 0 1-.4-.206l-2.035-2.89h-1.445v2.846a.258.258 0 0 1-.25.251h-1.327a.258.258 0 0 1-.251-.251v-9.819a.259.259 0 0 1 .251-.251zm-2.227 5.456h2.02a1.846 1.846 0 1 0 0-3.686h-2.02z" class="cls-3" data-name="Path 165" transform="translate(-373.14 -196.464)"/>
        </g>
    </g>
</svg>
